<svg width="24" height="24" viewBox="0 0 24 24" fill="none" xmlns="http://www.w3.org/2000/svg">
<path d="M6.50061 15.6193C6.50061 12.8343 8.75829 10.5767 11.5433 10.5767C14.3283 10.5767 16.5859 12.8343 16.5859 15.6193C16.5859 18.4043 14.3283 20.662 11.5433 20.662C8.75829 20.662 6.50061 18.4043 6.50061 15.6193Z" fill="#42C0E2"/>
<path d="M2.90881 9.112C2.90881 6.32702 5.1665 4.06933 7.95148 4.06933C10.7365 4.06933 12.9941 6.32702 12.9941 9.112C12.9941 11.897 10.7365 14.1547 7.95148 14.1547C5.1665 14.1547 2.90881 11.897 2.90881 9.112Z" fill="#FFD061"/>
<path d="M12.7334 10.718C12.3521 10.6259 11.9539 10.5766 11.5443 10.5766C9.32085 10.5766 7.43354 12.0157 6.76289 14.0133C7.1442 14.1055 7.54237 14.1547 7.95201 14.1547C10.1754 14.1547 12.0627 12.7156 12.7334 10.718Z" fill="#49BD90"/>
<path d="M10.0934 9.112C10.0934 6.32702 12.3511 4.06933 15.136 4.06933C17.921 4.06933 20.1787 6.32702 20.1787 9.112C20.1787 11.897 17.921 14.1547 15.136 14.1547C12.3511 14.1547 10.0934 11.897 10.0934 9.112Z" fill="#FA70B2"/>
<path d="M16.3252 14.0133C15.6545 12.0157 13.7672 10.5766 11.5438 10.5766C11.1342 10.5766 10.736 10.6259 10.3547 10.718C11.0253 12.7156 12.9126 14.1547 15.1361 14.1547C15.5457 14.1547 15.9439 14.1055 16.3252 14.0133Z" fill="#AF7BC6"/>
<path d="M12.9941 9.112C12.9941 7.73315 12.4405 6.48382 11.5437 5.5735C10.647 6.48382 10.0933 7.73315 10.0933 9.112C10.0933 10.4909 10.647 11.7402 11.5437 12.6505C12.4405 11.7402 12.9941 10.4909 12.9941 9.112Z" fill="#EF6122"/>
<path d="M10.3552 10.7176C10.7365 10.6256 11.1348 10.5766 11.5443 10.5766C11.9538 10.5766 12.3521 10.6256 12.7334 10.7176C12.4867 11.4522 12.0758 12.1108 11.5443 12.6505C11.0128 12.1108 10.6018 11.4522 10.3552 10.7176Z" fill="white"/>
</svg>
