<svg width="24" height="24" viewBox="0 0 24 24" fill="none" xmlns="http://www.w3.org/2000/svg">
<g clip-path="url(#clip0_1940_4727)">
<path d="M12 19C13.0943 19 14.1246 18.7902 15.0911 18.3707C16.0575 17.9564 16.9064 17.3808 17.6376 16.6441C18.3739 15.9074 18.9517 15.0582 19.371 14.0964C19.7903 13.1295 20 12.0961 20 10.9962C20 9.90136 19.7903 8.87306 19.371 7.91127C18.9517 6.94436 18.3739 6.09257 17.6376 5.35588C16.9064 4.61918 16.055 4.04364 15.0834 3.62926C14.117 3.20975 13.0866 3 11.9923 3C10.8981 3 9.86769 3.20975 8.90125 3.62926C7.9348 4.04364 7.08341 4.61918 6.34708 5.35588C5.61585 6.09257 5.04059 6.94436 4.62129 7.91127C4.2071 8.87306 4 9.90136 4 10.9962C4 12.0961 4.2071 13.1295 4.62129 14.0964C5.04059 15.0582 5.61841 15.9074 6.35475 16.6441C7.09108 17.3808 7.94247 17.9564 8.90892 18.3707C9.87536 18.7902 10.9057 19 12 19ZM11.1486 14.8024C10.9901 14.8024 10.8469 14.7691 10.7191 14.7026C10.5912 14.631 10.4711 14.5236 10.3586 14.3803L8.51007 12.1549C8.43848 12.0577 8.38223 11.9631 8.34132 11.871C8.30553 11.7738 8.28763 11.674 8.28763 11.5717C8.28763 11.3568 8.36178 11.1752 8.51007 11.0269C8.65836 10.8734 8.83989 10.7966 9.05465 10.7966C9.18249 10.7966 9.29754 10.8248 9.39981 10.8811C9.50208 10.9322 9.60435 11.0217 9.70662 11.1496L11.1256 12.93L14.2167 7.98801C14.4008 7.6964 14.6283 7.5506 14.8993 7.5506C15.1039 7.5506 15.2854 7.61711 15.4439 7.75012C15.6075 7.88313 15.6894 8.05707 15.6894 8.27194C15.6894 8.36914 15.6689 8.46635 15.628 8.56355C15.5922 8.66075 15.5462 8.75284 15.4899 8.83981L11.908 14.3803C11.8159 14.5133 11.7034 14.6182 11.5705 14.695C11.4426 14.7666 11.302 14.8024 11.1486 14.8024Z" fill="#3897F0"/>
</g>
<defs>
<clipPath id="clip0_1940_4727">
<rect width="24" height="24" fill="white"/>
</clipPath>
</defs>
</svg>
